<?xml version="1.0" encoding="UTF-8" standalone="no"?>
<!-- Created with Inkscape (http://www.inkscape.org/) -->
<svg
    xmlns:inkscape="http://www.inkscape.org/namespaces/inkscape"
    xmlns:rdf="http://www.w3.org/1999/02/22-rdf-syntax-ns#"
    xmlns="http://www.w3.org/2000/svg"
    xmlns:sodipodi="http://sodipodi.sourceforge.net/DTD/sodipodi-0.dtd"
    xmlns:cc="http://creativecommons.org/ns#"
    xmlns:xlink="http://www.w3.org/1999/xlink"
    xmlns:dc="http://purl.org/dc/elements/1.1/"
    xmlns:svg="http://www.w3.org/2000/svg"
    xmlns:ns1="http://sozi.baierouge.fr"
    id="svg2931"
    sodipodi:docname="LDS Missionary.svg"
    viewBox="0 0 1050 1878"
    version="1.1"
    inkscape:version="0.48.0 r9654"
  >
  <sodipodi:namedview
      id="namedview2933"
      bordercolor="#666666"
      inkscape:pageshadow="2"
      guidetolerance="10"
      pagecolor="#ffffff"
      gridtolerance="10"
      inkscape:window-maximized="1"
      inkscape:zoom="0.52"
      objecttolerance="10"
      borderopacity="1"
      inkscape:current-layer="g3906"
      inkscape:cx="171.44365"
      inkscape:cy="919.29056"
      inkscape:window-y="-3"
      inkscape:window-x="-4"
      inkscape:window-width="1920"
      showgrid="false"
      inkscape:pageopacity="0"
      inkscape:window-height="1109"
  />
  <g
      id="layer2"
      inkscape:label="Layer#1"
      inkscape:groupmode="layer"
    >
    <g
        id="g3906"
        transform="translate(0 82.582)"
      >
      <path
          id="path2943"
          style="fill-rule:evenodd;fill:#000000"
          inkscape:connector-curvature="0"
          d="m417.52 293.86 9.6594-11.404 5.0322-9.0979-3.7596-10.251-2.0244-6.9836-3.0656-2.0502 2.198-6.3429 26.665-14.48 22.847-13.455 5.0322 3.7801 6.6517 0.89698 29.904-10.507 26.838-15.056 16.427-3.652 3.7597-3.2035 5.09-7.1118 9.0232-8.9057 11.452-20.438 0.92546-9.7386-13.361-13.967-0.17352-5.1256 9.7751 7.5602 9.3702 10.956-0.75193 5.7663-0.69409 13.327-0.52057 6.7273 16.947 26.333 6.0733 15.633 1.6774 6.3429-8.4448 20.63-0.80977 6.2788 17.237 22.553 2.0244 7.304h4.3381l3.5861-5.0615 17.121-5.4459 2.7764-20.695 3.9332-5.3819 2.3715-30.369-0.23136-17.875-6.6517-40.3-13.708-31.394-5.3214-8.7135-23.888-20.695-11.105-3.9723-4.1645 0.76884 0.34704 4.7412-9.4859-6.0226-4.9165-6.6633-2.4293-3.652-5.0322-3.0754-20.649-2.3065-6.7095-0.38442-18.856 2.6269-7.2301 1.2173-9.833 4.3568-3.7018-1.7299-7.0566-0.57663-16.485 5.0615-3.9332 2.2424-7.982 1.2814-8.1556 2.3065-26.144 18.324-28.4 26.333-8.1556 8.1369-5.9576 15.505-4.1067 2.8832-3.1234 9.6746-10.585 47.219 0.11568 9.6105 3.2969 7.8806 3.7596 12.109 5.3214 3.5238 3.5283 12.109 10.932 12.173 3.2969 12.173 8.2712 9.7386z"
      />
      <path
          id="path2991"
          style="fill-rule:evenodd;fill:#000000"
          inkscape:connector-curvature="0"
          d="m439.35 276.94-1.3882-3.4598 8.0688-10.668 4.1935-5.51 5.0611-1.794 14.084 2.1784 12.841 0.8329 2.921 1.6338 19.435-0.16018 6.5649 9.6425-32.16-2.2424-4.8297-2.1143-11.279-0.86495-7.982 1.6658-7.982 4.581-7.5482 6.2788z"
      />
      <path
          id="path2993"
          style="fill-rule:evenodd;fill:#000000"
          inkscape:connector-curvature="0"
          d="m541.82 270.47 2.4293-6.2468 2.4293-3.716 12.378-0.12814 10.99-1.6658 17.844-3.5879 3.9621 1.1212 4.5694 0.99309 3.4126 2.4667 4.714 0.12814 5.2924 7.7204 4.5405 3.1074-0.20244 4.8052-1.0701 0.76883-3.9621-2.8511-9.7751-4.2606-3.7597-3.3957-14.692-0.19221-13.795 3.1394-20.418 2.2424-4.8876-0.44848z"
      />
      <path
          id="path2995"
          style="fill-rule:evenodd;fill:#000000"
          inkscape:connector-curvature="0"
          d="m448.63 313.33 4.4827 0.54459 2.5161 1.2814 0.5784-1.794-2.3426-2.0502 0.86761-3.1074 5.9865-2.3706 5.1189-0.89697 0.46272 4.6771 0.72301 3.2355 3.4415 2.6589 5.1768 0.60867 5.1478-1.2814 1.7352-2.2104-0.2892-1.0892-4.8297-0.86494 0.0868-2.787 7.7507-0.60866 4.1935 1.9221 4.0778 2.5628 5.1189 3.1715 2.3426 0.1922 0.37596-1.5377-8.9364-9.0659-2.6607-0.22424-3.8175-3.5879-13.997-1.1532-6.3047 0.92901-11.424 3.9403-4.1935 2.6909-1.1568 2.8191-0.23137 3.3957z"
      />
      <path
          id="path2997"
          style="fill-rule:evenodd;fill:#000000"
          inkscape:connector-curvature="0"
          d="m515.24 304.9-2.6318-2.2745 0.69409-1.826 4.1935 2.8191 2.0244 6.439-0.0868 4.3888-1.6774 2.1784-0.52056-4.7732-1.6196-4.0044-0.37596-2.9472z"
      />
      <path
          id="path2999"
          style="fill-rule:evenodd;fill:#000000"
          inkscape:connector-curvature="0"
          d="m551.47 314.23-0.0868-3.2035 4.1935-5.4459 7.5193-6.0226 8.5315-0.60867 15.154 1.1212 3.6151 1.794 7.7218 6.8875 0.60733 2.8191-5.6684-2.1463-6.3625-3.4918-2.3426-1.1533-5.813 0.60866-0.17352 2.8511 2.8631 1.2494 2.9499-0.25628-3.2969 2.6269-3.4126 2.0823-5.1768-0.25628-3.7597-1.4736-2.3715-3.0754-1.3882-2.2424-2.5161-0.32035-3.3258 1.6338-3.9043 3.3957-3.5572 2.6269z"
      />
      <path
          id="path3001"
          style="fill-rule:evenodd;fill:#000000"
          inkscape:connector-curvature="0"
          d="m584.21 321.53-2.2847-2.1143 4.9454-3.8442 4.7719-0.48052 1.1279 1.794-4.3381 1.0251-4.2224 3.62z"
      />
      <path
          id="path3003"
          style="fill-rule:evenodd;fill:#000000"
          inkscape:connector-curvature="0"
          d="m603.73 311.41-0.75193-2.3386 6.5649-0.70477-1.3593 1.9221-4.4538 1.1212z"
      />
      <path
          id="path3005"
          style="fill-rule:evenodd;fill:#000000"
          inkscape:connector-curvature="0"
          d="m503.12 375.67-0.0578-1.9541 3.7018-1.6978 3.7597 0.0961 4.6562 2.2745 6.6517 3.3316 4.0199 1.0251 4.8876-0.73681 6.8252-2.6589 2.9788-1.1212 3.1523-0.51256 5.4949 0.12814-1.0122 1.6018-4.9165 0.7368-4.4827 0.76884-3.9042 4.2606-5.466 1.4736-7.0855 0.25628-6.4203-4.0044-4.8008-3.62-3.7886-0.0641-4.1935 0.41645z"
      />
      <path
          id="path3007"
          style="fill-rule:evenodd;fill:#000000"
          inkscape:connector-curvature="0"
          d="m467.43 403.19 0.37597-6.5031 3.1234-7.1118 1.6196-1.9221 4.3381-0.32035-3.5283 5.9905-2.4004 6.0226-1.8798 4.3247-1.6485-0.48052z"
      />
      <g
          id="g3902"
        >
        <path
            id="path3009"
            style="fill-rule:evenodd;fill:#000000"
            inkscape:connector-curvature="0"
            d="m482.67 413.12-2.169-1.794 0.8387-5.1256 1.822-1.8901 5.2924 2.9472 16.369 2.0823 9.3413 0.57663 4.5405-1.5697 6.5071-0.6407 2.3136 1.5377 3.1523-1.4095 3.644-1.5056 12.725 0.67274 7.8085 0.28831 8.4448-2.3706 2.9499-2.5628 2.8342-0.48052 0.83869 7.0797-1.2436 2.3065-2.7764 0.41646-1.3593-2.9472-1.7931 0.22425-1.9666 2.3065-5.6106 0.89698-15.328 0.80088-5.1478 1.0892-4.2224 2.3386-4.1356-2.0182-7.2301-0.19221-11.828 0.19221-11.221-2.9792-9.1967-1.3775-2.0534-0.35238-2.1401 3.4598z"
        />
        <path
            id="path3011"
            style="fill-rule:evenodd;fill:#000000"
            inkscape:connector-curvature="0"
            d="m498.87 418.72 5.1189 1.2173 6.0154 3.4277 6.0444 2.3065 6.0154-1.4736 11.134-0.51256 9.6305 0.0641 4.5405-1.5056 6.3336-4.3888 4.5116-2.0823-1.0411 2.6909-6.3047 4.3888-1.446 2.4987-7.259 1.858-11.597 1.1533-7.8374 0.19221-5.8708 0.92901-5.3792-0.96105-7.6061-3.7801-2.4582-2.8191-2.545-3.2035z"
        />
      </g
      >
      <path
          id="path3013"
          inkscape:connector-curvature="0"
          sodipodi:nodetypes="ccccccccccccccccccccccccccccccccccccccccccsccccccccccccccccccccccccccccccccccccccccccccccccccccccccccc"
          style="fill-rule:evenodd;fill:#000000"
          d="m651.71 263.64 5.1768 4.8052 0.72301 4.0684 0.0289 13.198-0.95437 9.8347-4.6851 16.818-5.2057 24.443-1.6485 6.2788-7.3169 8.0728-8.3869 6.9836-2.6896 3.2676-1.7931 7.5282-0.60733 13.583-0.34705 17.715-1.7352 8.6815-4.0489 7.9447-8.4158 9.4823-50.363 48.66-7.0277 4.1966-14.72 1.9221-21.748-0.16018-10.411-0.28831-9.7462-5.7983-44.19-43.568-10.498-11.02-6.1022-10.091-2.6607-7.5602-2.5161-10.604-2.3426-21.047-1.4171-13.006-1.1857-2.9472-3.7307-1.826-9.5148-2.6589-5.1189-4.9334-1.7642-3.5559-0.20244-5.0295-3.8753-6.7914-0.98329-5.1576-4.8586-6.8875-4.2152-3.692-2.3714-11.981-2.6896-12.75s1.6485-7.8165 1.5906-9.4503c-0.0578-1.6338 3.2391-8.7135 3.2391-8.7135l3.4415-6.6953 3.2969 0.60867 6.5938 5.4139 3.7886-6.3109-10.122-12.91-4.8876 5.3498-5.466 3.4277-4.2802 10.251-2.0823 4.3568-2.4582 3.2676-0.0868 14.544 0.92545 11.18 2.6607 7.9126 6.3914 10.155 4.6851 6.8234 3.2102 6.5992 2.0823 9.8668 4.1067 8.8416 8.4448 6.9836 6.7674 2.1463 2.4004 0.35238 0.69409 7.6243 0.95438 18.228 2.7474 14.896 1.8509 7.2399 3.4705 6.407 18.538 19.157 41.269 41.069 8.2712 5.8944 10.469 4.7091 14.055 0.76884 19.955-0.38442 12.754-1.9541 9.9486-6.5351 18.48-15.377 28.776-30.689 9.0232-9.3542 5.7841-9.3862 4.8876-13.615 0.59674-15.793 1.304-18.002 2.8422-4.935 0.86762-3.2355 6.8541-4.7412 4.9454-5.478 1.8798-5.6702 1.1279-2.6589 4.0199-10.091 4.5984-19.926 3.0366-16.562 1.7063-8.265 0.69409-13.391-0.75193-10.924-6.0444-6.439-5.9287-2.6909-4.8586 4.9013 3.1003 5.0705h0.00004z"
      />
      <path
          id="path3015"
          style="fill-rule:evenodd;fill:#000000"
          inkscape:connector-curvature="0"
          d="m639.65 303.81-3.2102-3.1394-0.40488-7.336 2.5739-5.5741 8.734-10.411 2.6318 0.0961 2.8053 4.1966 1.2725-4.0364-0.26028-4.3247-3.8464-1.5697-3.8464 0.89698-6.2757 6.6953-5.09 6.8234-2.921 5.51-0.34705 6.3109 2.6028 3.9723 5.5816 1.8901z"
      />
      <path
          id="path3017"
          style="fill-rule:evenodd;fill:#000000"
          inkscape:connector-curvature="0"
          d="m644.68 283.72 2.3715 6.407-0.54949 6.1827-1.9666 8.3611-1.2436 5.3819 1.7063 5.1256 2.7764 0.35239 1.2147-5.2217-0.95438-5.2537 2.2847-7.7845 0.78085-5.8624-2.0534-5.0615-4.367-2.6269z"
      />
      <path
          id="path3019"
          style="fill-rule:evenodd;fill:#000000"
          inkscape:connector-curvature="0"
          d="m635.69 311.85-2.5739-3.2996 1.2147-2.4346 2.4293 0.89698 2.3136 5.51 3.6151 4.1966 0.54948 1.5056-1.1279 4.1325-2.7185 6.4711-2.6318 2.8831-2.4293 1.0892-1.0122-1.3134 1.6195-3.1715 2.8053-5.9265 1.6485-4.2927-0.63625-2.4667-1.4749-1.4736-1.5906-2.3065z"
      />
      <path
          id="path3021"
          style="fill-rule:evenodd;fill:#000000"
          inkscape:connector-curvature="0"
          d="m406.4 307.46 2.6607-4.2927 1.1857-7.7204-0.72301-4.9334-5.1189-6.6312-4.2513-3.8442-2.9788-0.35238-3.0077 0.99308-0.98329 4.1966-0.17352 6.8234 2.4582 7.0797 3.0945 6.439-0.11568 2.5308-3.2102-6.0546-3.5283-6.2788-1.7642-6.8234 0.75193-7.1758 1.1568-3.2676 3.644-1.7619 3.9332-0.0961 4.3381 2.9792 4.4827 6.439 3.991 4.4529 1.0122 5.2537-0.92546 7.1438-3.3258 4.1005-2.6028 0.80088z"
      />
      <path
          id="path3023"
          style="fill-rule:evenodd;fill:#000000"
          inkscape:connector-curvature="0"
          d="m413.43 304.99-1.1857 3.5238-3.5861 6.8875 0.98329 3.684 2.921 3.7801 3.0656 5.9265 1.3882 1.6978 2.545-0.57663-3.7886-6.471-2.9788-5.7983-0.54949-4.0364 1.7642-3.8762-0.57841-4.7412z"
      />
      <path
          id="path3025"
          sodipodi:nodetypes="cccccccccccccc"
          style="fill-rule:evenodd;fill:#000000"
          inkscape:connector-curvature="0"
          d="m428.4 414.19 1.4171 29.184 0.46273 9.3862-0.75193 2.8191 13.13 15.921 32.883 24.507 31.032 24.218 14.432 10.836 2.5649-6.2145-63.617-47.741-14.026-11.533-9.6305-11.18 0.1446-32.451z"
      />
      <path
          id="path3027"
          style="fill-rule:evenodd;fill:#000000"
          inkscape:connector-curvature="0"
          d="m544.25 530.34-4.2224-5.51 34.531-29.312 25.016-25.98 18.046-19.349 0.4338-4.8052-0.69409-18.164 6.9988-10.283-1.1279 19.99 1.4749 5.2217 1.9088 2.3706-1.7063 6.0226-24.872 25.724-24.177 25.82-23.281 20.663-8.3291 7.5923z"
      />
      <path
          id="path3029"
          style="fill-rule:evenodd;fill:#000000"
          inkscape:connector-curvature="0"
          d="m429.61 429.69-7.2301 2.0502-5.1478 2.0823-3.8175 3.62-3.3258 6.6953s3.9043 5.2858 4.0778 3.5879c0.17352-1.6978 3.3258-9.2261 3.3258-9.2261l3.1812-2.1784 5.7552-1.6018 3.9332-0.44849-0.75193-4.581z"
      />
      <path
          id="path3031"
          style="fill-rule:evenodd;fill:#000000"
          inkscape:connector-curvature="0"
          d="m622.34 435.07 5.0032 1.1533 4.743 3.4277 3.0366 5.3178 4.367-0.57663-0.92546-5.3819-5.6395-4.4849-4.8876-1.9541-5.437-1.5697-0.26028 4.0684z"
      />
      <path
          id="path3033"
          inkscape:connector-curvature="0"
          sodipodi:nodetypes="cccccccccccccccccc"
          style="fill-rule:evenodd;fill:#000000"
          d="m338.31 529.13 18.104-26.973 8.3869-18.965 3.5861-11.212 11.944-6.0546 17.323-9.3222 14.287-13.743 6.1311-4.5169-5.1478 19.926 0.0817 19.894 1.4511 31.042-0.0142 13.797c10.437 93.972 38.318 204.35 73.077 303.95l35.552 65.169-2.868 2.367-200.73-292.75 55.542-56.54z"
      />
      <path
          id="path3035"
          inkscape:connector-curvature="0"
          sodipodi:nodetypes="cccccc"
          style="fill-rule:evenodd;fill:#000000"
          d="m485.16 837.41 26.628-222.72c19.367-17.068 33.349-14.804 44.09-0.90609l24.949 207.86-60.164 73.441z"
      />
      <path
          id="path3037"
          inkscape:connector-curvature="0"
          sodipodi:nodetypes="cccccccccccc"
          style="fill-rule:evenodd;fill:#000000"
          d="m406.84 489.16 1.3303-21.271c10.405 51.904 37.522 105.72 61.196 159.15l6.536 5.1256 5.1478-11.469 38.696-91.235 6.3046 0.19221-22.731 60.033-26.26 51.704-6.9987-1.6017c-36.006-59.912-43.504-91.646-60.733-133.65l-2.4872-16.979z"
      />
      <path
          id="path3039"
          inkscape:connector-curvature="0"
          sodipodi:nodetypes="ccccccc"
          style="fill-rule:evenodd;fill:#000000"
          d="m508.64 610.83c18.282-15.953 40.154-14.773 50.379 2.0502l8.9346-24.745-25.593-63.351-20.41-0.0551-22.566 65.599z"
      />
      <path
          id="path3041"
          style="fill-rule:evenodd;fill:#000000"
          inkscape:connector-curvature="0"
          d="m438.48 466.74-13.246-14.416-3.3548-6.8555 0.23137-6.3429 4.8008-5.8944 3.8175-0.44849-3.8175 4.9974-1.0411 6.2788 1.6774 6.9196 7.9242 6.2788 3.0077 9.4823z"
      />
      <path
          id="path3043"
          inkscape:connector-curvature="0"
          sodipodi:nodetypes="ccccccccccc"
          style="fill-rule:evenodd;fill:#000000"
          d="m545.83 524.08 42.86 99.693 5.09 2.6909c27.307-46.654 32.757-100.59 48.933-150.95l-10.296-34.982 6.189 0.25628 8.5604 41.581c-15.485 52.217-21.952 106.63-51.189 155.5l-4.5694 0.57662-49.859-104.18 4.2802-10.187z"
      />
      <path
          id="path3045"
          inkscape:connector-curvature="0"
          sodipodi:nodetypes="cccccccccccccc"
          style="fill-rule:evenodd;fill:#000000"
          d="m580.77 821.11c37.764-106.78 70.714-215.41 66.459-338.35l-9.1967-43.311-0.28921-2.8191 10.758 9.0338 4.3381 6.3429 40.951 22.04 34.589 74.193-23.599 11.148 40.604 35.879c-31.116 53.894-54.91 84.848-82.193 121.56l-19.743 0.77302 0.42204 25.283c-20.697 26.658-41.838 52.551-63.101 78.232z"
      />
      <path
          id="path3110"
          inkscape:connector-curvature="0"
          sodipodi:nodetypes="cccccccccccccccccccccccccccccccccccccccccccccccccccccccccccc"
          style="fill-rule:evenodd;fill:#000000"
          d="m702.25 487 30.938 63.938-22.562 10.312 38.406 31.844c-8.1987 27.994-40.095 82.457-236.88 321.22l-2.9688 2.9688 1.0625 275.41c35.206 204.66 119.62 269.24 188.94 376.81l36.312 1.0625 24.531-103.53 0.59375-4.1562 10.094-16.125 11.75-5.3438c31.075 11.624 64.123 21.24 84.312 43.75l5.3438-5.3124 4.2812-22.438 36.281-203.88-1.5-0.2187 2.5625-39.281 0.2092-53.892 4.072-14.42-1.0625-69.406-4.2812-26.688 1.0625-16-5.8626-27.755-0.53374-12.817 2.0213-5.3338-0.9375-26.688 0.375-35.875-0.5-5.75-1.4688-5.4688-6.25-9.125-7.3125-113.41 2.9375-7.6875-2.25-42.031-5.97-18.3-0.84375-4.5625 1.6875-5.25 4.2812-8.125 0.96875-3.125 0.375-3.375-4.0938-103.34-2.5312-11.281-16.438-24.875-4.9062-7.6875-8.5312-7.0625-6.5-2.4688-114.53-41.06-34.69-14.19zm65.281 617.06 4.25 5.3437-1.0625 40.563 7.4688 27.75 1.7812 64.719-3.9062 21.75-0.5625 5.625-9.0625-10.938 1.0938-73.656-5.3438-6.4063 5.3438-74.75z"
      />
      <path
          id="path3112"
          sodipodi:nodetypes="ccccc"
          style="fill-rule:evenodd;fill:#ffffff"
          inkscape:connector-curvature="0"
          d="m643.18 798.69 0.52057-81.753 118.82-0.068 0.10135 82.026z"
      />
      <path
          id="path3890"
          inkscape:connector-curvature="0"
          sodipodi:nodetypes="cccccccccccscsccccccc"
          style="fill-rule:evenodd;fill:#000000"
          d="m212.43 1643.2 1.0675-82.196 6.4049-12.81v-21.35l-2.135-7.4724 4.2699-33.092 5.3374-27.754 132.04 117.49 5.1279 2.7376 6.138-3.069c63.096-57.778 104.96-125.39 142.78-197.22 0 0 42.699-5.3374 45.902 1.0675 3.2024 6.4049 131.3 193.21 131.3 193.21s5.3374 6.4049 10.675 5.3374c5.3374-1.0675 36.294 0 36.294 0l28.822-107.82 108.88 56.576-53.374 80.061-3.2024 7.4724v21.35l-606.33 7.4723z"
      />
      <path
          id="path3892"
          inkscape:connector-curvature="0"
          sodipodi:nodetypes="cccccccccccccccccccccccccccccccccccccccccccccccccccccsccccccccccccccccccccccc"
          style="fill-rule:evenodd;fill:#000000"
          d="m355.47 491.34-155.85 59.779-12.81 6.4049-5.3374 2.135-10.675 9.6073-5.3374 12.81-17.08 79.527 1.0675 12.81 5.8712 13.344 2.9814 7.1218-4.5826 8.2429 3.2024 43.347-3.2024 35.227-4.2699 30.957 3.2024 10.675 6.4049 18.147-7.4724 13.877 3.2024 12.81c-7.8541 27.739-7.4687 43.886-10.869 92.871l-2.566 3.8925-3.2024 9.9847 0.18314 49.611 0.44217 15.505-1.0675 15.99-2.6687 5.3374-9.0736 25.62-0.93797 17.209 5.2079 22.288 5.3374 49.126 6.0386 50.216-2.411 7.6288 4.3628 27.285 10.858 32.07v6.6718l6.7712 26.643-4.2699 13.877-3.2024 10.675 32.024 122.76 12.81 8.5399 18.147 7.4724 5.3374-3.2025 6.2298-26.836-2.8625-3.0376-7.6372 8.5245-11.742-3.2024-4.2699-5.3374 3.2024-20.282 5.3374-9.6073 9.6073-22.417v27.754l2.135 6.4049 138.63 127.17 3.4738 1.7297 3.1977-1.873c67.976-65.599 132.14-137.04 158.93-265.8l-26.687-118.49 1.0675-264.74 15.906-17.772-203.78-298.2 50.172-51.239-33.092-20.282zm-74.346 646.99-0.31723-1.1777 1.0073-18.131-2.135-4.2699 0.96105-13.455 0.29514-1.1127 1.0826-0.5186 8.3361-0.9262 3.2024 1.0674 2.135 12.81-6.987 26.95-0.76839 1.2115-1.6247-0.1571-4.4297-1.8984z"
      />
      <path
          id="path3894"
          sodipodi:rx="16.545958"
          sodipodi:ry="16.545958"
          style="fill-rule:evenodd;fill:#ffffff"
          sodipodi:type="arc"
          d="m548.69 951.96c0 9.1381-7.4079 16.546-16.546 16.546s-16.546-7.4079-16.546-16.546 7.4079-16.546 16.546-16.546 16.546 7.4079 16.546 16.546z"
          sodipodi:cy="951.96008"
          sodipodi:cx="532.13934"
      />
      <path
          id="path3896"
          sodipodi:rx="17.61344"
          sodipodi:ry="17.61344"
          style="fill-rule:evenodd;fill:#ffffff"
          sodipodi:type="arc"
          d="m548.69 1140.9c0 9.7276-7.8858 17.613-17.613 17.613-9.7276 0-17.613-7.8858-17.613-17.613 0-9.7276 7.8858-17.613 17.613-17.613 9.7276 0 17.613 7.8858 17.613 17.613z"
          sodipodi:cy="1140.9043"
          sodipodi:cx="531.07184"
      />
      <path
          id="path3898"
          sodipodi:rx="17.61344"
          sodipodi:ry="17.61344"
          style="fill-rule:evenodd;fill:#ffffff"
          sodipodi:type="arc"
          d="m511.32 1325.6c0 9.7276-7.8858 17.613-17.613 17.613-9.7276 0-17.613-7.8858-17.613-17.613 0-9.7276 7.8858-17.613 17.613-17.613 9.7276 0 17.613 7.8858 17.613 17.613z"
          sodipodi:cy="1325.5785"
          sodipodi:cx="493.71002"
      />
    </g>
  </g>
  <metadata>
    <rdf:RDF>
      <cc:Work>
        <dc:format>image/svg+xml</dc:format>
        <dc:type
            rdf:resource="http://purl.org/dc/dcmitype/StillImage"
        />
        <cc:license
            rdf:resource="http://creativecommons.org/licenses/publicdomain/"
        />
        <dc:publisher>
          <cc:Agent rdf:about="http://openclipart.org/">
            <dc:title>Openclipart</dc:title>
          </cc:Agent>
        </dc:publisher>
        <dc:title>LDS Missionary</dc:title>
        <dc:date>2010-09-14T09:19:22</dc:date>
        <dc:description>A stylized missionary.  We created this as a background to play pin-the-nametag-on-the-missionary for a church activity.</dc:description>
        <dc:source>https://openclipart.org/detail/84781/lds-missionary-by-sorenstoutner</dc:source>
        <dc:creator>
          <cc:Agent>
            <dc:title>sorenstoutner</dc:title>
          </cc:Agent>
        </dc:creator>
        <dc:subject>
          <rdf:Bag>
            <rdf:li>Elder</rdf:li>
            <rdf:li>LDS</rdf:li>
            <rdf:li>Missionary</rdf:li>
            <rdf:li>Mormon</rdf:li>
          </rdf:Bag>
        </dc:subject>
      </cc:Work>
      <cc:License
          rdf:about="http://creativecommons.org/licenses/publicdomain/"
        >
        <cc:permits
            rdf:resource="http://creativecommons.org/ns#Reproduction"
        />
        <cc:permits
            rdf:resource="http://creativecommons.org/ns#Distribution"
        />
        <cc:permits
            rdf:resource="http://creativecommons.org/ns#DerivativeWorks"
        />
      </cc:License>
    </rdf:RDF
    >
  </metadata>
</svg>
